<svg xmlns="http://www.w3.org/2000/svg" viewBox="0 0 16 16" id="Chart-Vertical-Fill--Streamline-Mingcute-Fill" height="16" width="16">
  <desc>
    Chart Vertical Fill Streamline Icon: https://streamlinehq.com
  </desc>
  <g fill="none" fill-rule="evenodd">
    <path d="M16 0v16H0V0zM8.395999999999999 15.505333333333333l-0.008 0.0013333333333333333 -0.047333333333333324 0.023333333333333334 -0.013333333333333332 0.0026666666666666666 -0.009333333333333332 -0.0026666666666666666 -0.047333333333333324 -0.023999999999999997c-0.006666666666666666 -0.002 -0.012666666666666666 0 -0.016 0.004l-0.0026666666666666666 0.006666666666666666 -0.011333333333333334 0.2853333333333333 0.003333333333333333 0.013333333333333332 0.006666666666666666 0.008666666666666666 0.06933333333333333 0.049333333333333326 0.009999999999999998 0.0026666666666666666 0.008 -0.0026666666666666666 0.06933333333333333 -0.049333333333333326 0.008 -0.010666666666666666 0.0026666666666666666 -0.011333333333333334 -0.011333333333333334 -0.2846666666666666c-0.0013333333333333333 -0.006666666666666666 -0.005999999999999999 -0.011333333333333334 -0.010666666666666666 -0.011999999999999999m0.176 -0.07533333333333334 -0.009333333333333332 0.0013333333333333333 -0.12266666666666666 0.062 -0.006666666666666666 0.006666666666666666 -0.002 0.007333333333333332 0.011999999999999999 0.2866666666666666 0.003333333333333333 0.008 0.005333333333333333 0.005333333333333333 0.134 0.06133333333333333c0.008 0.0026666666666666666 0.015333333333333332 0 0.019333333333333334 -0.005333333333333333l0.0026666666666666666 -0.009333333333333332 -0.02266666666666667 -0.4093333333333333c-0.002 -0.008 -0.006666666666666666 -0.013333333333333332 -0.013333333333333332 -0.014666666666666665m-0.4766666666666666 0.0013333333333333333a0.015333333333333332 0.015333333333333332 0 0 0 -0.018 0.004l-0.004 0.009333333333333332 -0.02266666666666667 0.4093333333333333c0 0.008 0.004666666666666666 0.013333333333333332 0.011333333333333334 0.016l0.009999999999999998 -0.0013333333333333333 0.134 -0.062 0.006666666666666666 -0.005333333333333333 0.002 -0.007333333333333332 0.011999999999999999 -0.2866666666666666 -0.002 -0.008 -0.006666666666666666 -0.006666666666666666z" stroke-width="0.6667"></path>
    <path fill="#000000" d="M3.6666666666666665 3.333333333333333a1 1 0 1 0 -2 0v9.333333333333332A1 1 0 0 0 2.6666666666666665 13.666666666666666h10.666666666666666a1 1 0 0 0 0 -2H3.6666666666666665zm2.6666666666666665 4.666666666666666a1 1 0 0 0 -2 0v2a1 1 0 0 0 2 0zM8 3.6666666666666665A1 1 0 0 1 9 4.666666666666666v5.333333333333333a1 1 0 0 1 -2 0V4.666666666666666A1 1 0 0 1 8 3.6666666666666665m3.6666666666666665 3a1 1 0 0 0 -2 0v3.333333333333333a1 1 0 0 0 2 0z" stroke-width="0.6667"></path>
  </g>
</svg>