<svg xmlns="http://www.w3.org/2000/svg" viewBox="0 0 16 16" id="Check-2-Fill--Streamline-Mingcute-Fill" height="16" width="16">
  <desc>
    Check 2 Fill Streamline Icon: https://streamlinehq.com
  </desc>
  <g fill="none" fill-rule="evenodd">
    <path d="M16 0v16H0V0h16ZM8.395999999999999 15.505333333333333l-0.008 0.0013333333333333333 -0.047333333333333324 0.023333333333333334 -0.013333333333333332 0.0026666666666666666 -0.009333333333333332 -0.0026666666666666666 -0.047333333333333324 -0.023999999999999997c-0.006666666666666666 -0.002 -0.012666666666666666 0 -0.016 0.004l-0.0026666666666666666 0.006666666666666666 -0.011333333333333334 0.2853333333333333 0.003333333333333333 0.013333333333333332 0.006666666666666666 0.008666666666666666 0.06933333333333333 0.049333333333333326 0.009999999999999998 0.0026666666666666666 0.008 -0.0026666666666666666 0.06933333333333333 -0.049333333333333326 0.008 -0.010666666666666666 0.0026666666666666666 -0.011333333333333334 -0.011333333333333334 -0.2846666666666666c-0.0013333333333333333 -0.006666666666666666 -0.005999999999999999 -0.011333333333333334 -0.010666666666666666 -0.011999999999999999Zm0.176 -0.07533333333333334 -0.009333333333333332 0.0013333333333333333 -0.12266666666666666 0.062 -0.006666666666666666 0.006666666666666666 -0.002 0.007333333333333332 0.011999999999999999 0.2866666666666666 0.003333333333333333 0.008 0.005333333333333333 0.005333333333333333 0.134 0.06133333333333333c0.008 0.0026666666666666666 0.015333333333333332 0 0.019333333333333334 -0.005333333333333333l0.0026666666666666666 -0.009333333333333332 -0.02266666666666667 -0.4093333333333333c-0.002 -0.008 -0.006666666666666666 -0.013333333333333332 -0.013333333333333332 -0.014666666666666665Zm-0.4766666666666666 0.0013333333333333333a0.015333333333333332 0.015333333333333332 0 0 0 -0.018 0.004l-0.004 0.009333333333333332 -0.02266666666666667 0.4093333333333333c0 0.008 0.004666666666666666 0.013333333333333332 0.011333333333333334 0.016l0.009999999999999998 -0.0013333333333333333 0.134 -0.062 0.006666666666666666 -0.005333333333333333 0.002 -0.007333333333333332 0.011999999999999999 -0.2866666666666666 -0.002 -0.008 -0.006666666666666666 -0.006666666666666666 -0.12266666666666666 -0.06133333333333333Z" stroke-width="0.6667"></path>
    <path fill="#000000" d="M12.996666666666666 2.0886666666666667a0.6666666666666666 0.6666666666666666 0 0 1 0.9013333333333333 0.206l0.6599999999999999 1.0066666666666666a0.6666666666666666 0.6666666666666666 0 0 1 -0.10333333333333333 0.8526666666666666l-0.002 0.0026666666666666666 -0.009333333333333332 0.008666666666666666 -0.038 0.03533333333333333 -0.15 0.1433333333333333a55.906666666666666 55.906666666666666 0 0 0 -2.413333333333333 2.490666666666667c-1.4646666666666666 1.6106666666666665 -3.2039999999999997 3.7186666666666666 -4.374666666666666 5.764 -0.32666666666666666 0.5706666666666667 -1.1246666666666667 0.6933333333333334 -1.5979999999999999 0.20066666666666666l-4.323333333333333 -4.492a0.6666666666666666 0.6666666666666666 0 0 1 0.033999999999999996 -0.9573333333333333l1.3066666666666666 -1.1786666666666665A0.6666666666666666 0.6666666666666666 0 0 1 3.733333333333333 6.133333333333333l2.206 1.654c3.4459999999999997 -3.398 5.3999999999999995 -4.702 7.057333333333333 -5.698666666666666Z" stroke-width="0.6667"></path>
  </g>
</svg>