<svg xmlns="http://www.w3.org/2000/svg" viewBox="0 0 16 16" id="Discord-Fill--Streamline-Mingcute-Fill" height="16" width="16">
  <desc>
    Discord Fill Streamline Icon: https://streamlinehq.com
  </desc>
  <g fill="none" fill-rule="evenodd">
    <path d="M16 0v16H0V0h16ZM8.395333333333333 15.505333333333333l-0.007333333333333332 0.0013333333333333333 -0.047333333333333324 0.023333333333333334 -0.013333333333333332 0.0026666666666666666 -0.009333333333333332 -0.0026666666666666666 -0.047333333333333324 -0.023333333333333334c-0.006666666666666666 -0.0026666666666666666 -0.012666666666666666 -0.0006666666666666666 -0.016 0.003333333333333333l-0.0026666666666666666 0.006666666666666666 -0.011333333333333334 0.2853333333333333 0.003333333333333333 0.013333333333333332 0.006666666666666666 0.008666666666666666 0.06933333333333333 0.049333333333333326 0.009999999999999998 0.0026666666666666666 0.008 -0.0026666666666666666 0.06933333333333333 -0.049333333333333326 0.008 -0.010666666666666666 0.0026666666666666666 -0.011333333333333334 -0.011333333333333334 -0.2846666666666666c-0.0013333333333333333 -0.006666666666666666 -0.005999999999999999 -0.011333333333333334 -0.011333333333333334 -0.011999999999999999Zm0.17666666666666667 -0.07533333333333334 -0.008666666666666666 0.0013333333333333333 -0.12333333333333332 0.062 -0.006666666666666666 0.006666666666666666 -0.002 0.007333333333333332 0.011999999999999999 0.2866666666666666 0.003333333333333333 0.008 0.005333333333333333 0.004666666666666666 0.134 0.062c0.008 0.0026666666666666666 0.015333333333333332 0 0.019333333333333334 -0.005333333333333333l0.0026666666666666666 -0.009333333333333332 -0.02266666666666667 -0.4093333333333333c-0.002 -0.008 -0.006666666666666666 -0.013333333333333332 -0.013333333333333332 -0.014666666666666665Zm-0.4766666666666666 0.0013333333333333333a0.015333333333333332 0.015333333333333332 0 0 0 -0.018 0.004l-0.004 0.009333333333333332 -0.02266666666666667 0.4093333333333333c0 0.008 0.004666666666666666 0.013333333333333332 0.011333333333333334 0.016l0.009999999999999998 -0.0013333333333333333 0.134 -0.062 0.006666666666666666 -0.005333333333333333 0.0026666666666666666 -0.007333333333333332 0.011333333333333334 -0.2866666666666666 -0.002 -0.008 -0.006666666666666666 -0.006666666666666666 -0.12266666666666666 -0.06133333333333333Z" stroke-width="0.6667"></path>
    <path fill="#000000" d="M10.001999999999999 2.6666666666666665c0.496 0 1.02 0.17333333333333334 1.5 0.3646666666666667l0.35133333333333333 0.144c0.84 0.352 1.3119999999999998 1.0906666666666665 1.678 1.9020000000000001 0.594 1.3166666666666667 1.0066666666666666 3.0719999999999996 1.1493333333333333 4.406666666666666 0.06799999999999999 0.6333333333333333 0.08466666666666667 1.2706666666666666 -0.03733333333333333 1.6993333333333331 -0.13133333333333333 0.458 -0.578 0.782 -1.012 1.0366666666666666l-0.21466666666666667 0.122 -0.22266666666666668 0.124c-0.11466666666666665 0.064 -0.23266666666666663 0.12733333333333333 -0.35 0.1893333333333333l-0.348 0.18 -0.478 0.238 -0.3846666666666666 0.1893333333333333a0.6666666666666666 0.6666666666666666 0 1 1 -0.596 -1.192l0.5266666666666666 -0.26 -0.3866666666666666 -0.40599999999999997c-0.9266666666666665 0.37999999999999995 -2.018 0.5953333333333333 -3.1773333333333333 0.5953333333333333 -1.1593333333333333 0 -2.2506666666666666 -0.21466666666666667 -3.1773333333333333 -0.5953333333333333l-0.3866666666666666 0.4053333333333333 0.5286666666666666 0.26a0.6666666666666666 0.6666666666666666 0 1 1 -0.596 1.1933333333333334l-0.3626666666666667 -0.18c-0.268 -0.13333333333333333 -0.5366666666666666 -0.2653333333333333 -0.802 -0.4046666666666666l-0.6186666666666667 -0.33666666666666667 -0.214 -0.122c-0.434 -0.25466666666666665 -0.8813333333333333 -0.5786666666666667 -1.012 -1.0366666666666666 -0.12266666666666666 -0.42866666666666664 -0.10533333333333333 -1.0653333333333332 -0.038 -1.6999999999999997 0.14266666666666666 -1.3339999999999999 0.5553333333333332 -3.0893333333333333 1.1493333333333333 -4.406 0.366 -0.8113333333333334 0.8379999999999999 -1.55 1.678 -1.9020000000000001C4.7059999999999995 2.942 5.381333333333332 2.6666666666666665 6 2.6666666666666665c0.40199999999999997 0 0.718 0.37 0.6599999999999999 0.7646666666666666A9.1 9.1 0 0 1 8 3.333333333333333c0.4606666666666666 0 0.9106666666666667 0.03333333333333333 1.3426666666666665 0.09866666666666665A0.6746666666666666 0.6746666666666666 0 0 1 10.002666666666666 2.6666666666666665ZM5.833333333333333 7a1.1666666666666665 1.1666666666666665 0 1 0 0 2.333333333333333 1.1666666666666665 1.1666666666666665 0 0 0 0 -2.333333333333333Zm4.333333333333333 0a1.1666666666666665 1.1666666666666665 0 1 0 0 2.333333333333333 1.1666666666666665 1.1666666666666665 0 0 0 0 -2.333333333333333Z" stroke-width="0.6667"></path>
  </g>
</svg>