<svg xmlns="http://www.w3.org/2000/svg" viewBox="0 0 16 16" id="Github-Fill--Streamline-Mingcute-Fill" height="16" width="16">
  <desc>
    Github Fill Streamline Icon: https://streamlinehq.com
  </desc>
  <g fill="none" fill-rule="nonzero">
    <path d="M16 0v16H0V0h16ZM8.395333333333333 15.505333333333333l-0.007333333333333332 0.0013333333333333333 -0.047333333333333324 0.023333333333333334 -0.013333333333333332 0.0026666666666666666 -0.009333333333333332 -0.0026666666666666666 -0.047333333333333324 -0.023333333333333334c-0.006666666666666666 -0.0026666666666666666 -0.012666666666666666 -0.0006666666666666666 -0.016 0.003333333333333333l-0.0026666666666666666 0.006666666666666666 -0.011333333333333334 0.2853333333333333 0.003333333333333333 0.013333333333333332 0.006666666666666666 0.008666666666666666 0.06933333333333333 0.049333333333333326 0.009999999999999998 0.0026666666666666666 0.008 -0.0026666666666666666 0.06933333333333333 -0.049333333333333326 0.008 -0.010666666666666666 0.0026666666666666666 -0.011333333333333334 -0.011333333333333334 -0.2846666666666666c-0.0013333333333333333 -0.006666666666666666 -0.005999999999999999 -0.011333333333333334 -0.011333333333333334 -0.011999999999999999Zm0.17666666666666667 -0.07533333333333334 -0.008666666666666666 0.0013333333333333333 -0.12333333333333332 0.062 -0.006666666666666666 0.006666666666666666 -0.002 0.007333333333333332 0.011999999999999999 0.2866666666666666 0.003333333333333333 0.008 0.005333333333333333 0.004666666666666666 0.134 0.062c0.008 0.0026666666666666666 0.015333333333333332 0 0.019333333333333334 -0.005333333333333333l0.0026666666666666666 -0.009333333333333332 -0.02266666666666667 -0.4093333333333333c-0.002 -0.008 -0.006666666666666666 -0.013333333333333332 -0.013333333333333332 -0.014666666666666665Zm-0.4766666666666666 0.0013333333333333333a0.015333333333333332 0.015333333333333332 0 0 0 -0.018 0.004l-0.004 0.009333333333333332 -0.02266666666666667 0.4093333333333333c0 0.008 0.004666666666666666 0.013333333333333332 0.011333333333333334 0.016l0.009999999999999998 -0.0013333333333333333 0.134 -0.062 0.006666666666666666 -0.005333333333333333 0.0026666666666666666 -0.007333333333333332 0.011333333333333334 -0.2866666666666666 -0.002 -0.008 -0.006666666666666666 -0.006666666666666666 -0.12266666666666666 -0.06133333333333333Z" stroke-width="0.6667"></path>
    <path fill="#000000" d="M4.682666666666666 1.54a6.053333333333333 6.053333333333333 0 0 1 1.4166666666666665 0.6973333333333334A7.621333333333333 7.621333333333333 0 0 1 8 2c0.6619999999999999 0 1.3006666666666666 0.08266666666666667 1.8993333333333333 0.23666666666666664a6.053333333333333 6.053333333333333 0 0 1 1.416 -0.6966666666666665c0.4646666666666666 -0.15799999999999997 1.1266666666666665 -0.414 1.5199999999999998 0.021333333333333333 0.26666666666666666 0.296 0.3333333333333333 0.7919999999999999 0.3806666666666666 1.1706666666666665 0.05333333333333333 0.42266666666666663 0.066 0.9733333333333333 -0.074 1.5199999999999998C13.677333333333332 4.943333333333333 14 5.767999999999999 14 6.666666666666666c0 1.361333333333333 -0.7373333333333334 2.543333333333333 -1.8286666666666664 3.362a6.303999999999999 6.303999999999999 0 0 1 -1.7266666666666666 0.904c0.14266666666666666 0.32666666666666666 0.222 0.688 0.222 1.0673333333333332v2a0.6666666666666666 0.6666666666666666 0 0 1 -0.6666666666666666 0.6666666666666666H6a0.6666666666666666 0.6666666666666666 0 0 1 -0.6666666666666666 -0.6666666666666666v-0.6606666666666666c-0.6366666666666666 0.078 -1.1706666666666665 0.008666666666666666 -1.6246666666666665 -0.184 -0.4746666666666666 -0.2013333333333333 -0.8053333333333332 -0.5133333333333333 -1.0539999999999998 -0.8119999999999999 -0.236 -0.2826666666666666 -0.4933333333333333 -0.9199999999999999 -0.8653333333333333 -1.044a0.6666666666666666 0.6666666666666666 0 0 1 0.42133333333333334 -1.2653333333333332c0.444 0.148 0.7333333333333334 0.46799999999999997 0.9313333333333333 0.7253333333333334 0.31999999999999995 0.41333333333333333 0.58 0.9533333333333333 1.0866666666666664 1.1686666666666665 0.20866666666666667 0.08866666666666667 0.5146666666666666 0.14666666666666667 0.9933333333333333 0.08133333333333333L5.333333333333333 11.986666666666666a2.6573333333333333 2.6573333333333333 0 0 1 0.222 -1.0539999999999998 6.303333333333333 6.303333333333333 0 0 1 -1.7266666666666666 -0.904C2.737333333333333 9.209999999999999 2 8.028666666666666 2 6.666666666666666c0 -0.8973333333333333 0.32199999999999995 -1.7213333333333332 0.856 -2.412 -0.13999999999999999 -0.5466666666666666 -0.128 -1.0986666666666665 -0.07466666666666666 -1.5219999999999998l0.003333333333333333 -0.025333333333333333c0.048666666666666664 -0.38799999999999996 0.10533333333333333 -0.8446666666666666 0.3773333333333333 -1.146 0.3933333333333333 -0.43533333333333335 1.056 -0.17866666666666667 1.5199999999999998 -0.020666666666666667Z" stroke-width="0.6667"></path>
  </g>
</svg>