<svg xmlns="http://www.w3.org/2000/svg" viewBox="0 0 16 16" id="Link-Fill--Streamline-Mingcute-Fill" height="16" width="16">
  <desc>
    Link Fill Streamline Icon: https://streamlinehq.com
  </desc>
  <g fill="none" fill-rule="nonzero">
    <path d="M16 0v16H0V0h16ZM8.395333333333333 15.505333333333333l-0.007333333333333332 0.0013333333333333333 -0.047333333333333324 0.023333333333333334 -0.013333333333333332 0.0026666666666666666 -0.009333333333333332 -0.0026666666666666666 -0.047333333333333324 -0.023333333333333334c-0.006666666666666666 -0.0026666666666666666 -0.012666666666666666 -0.0006666666666666666 -0.016 0.003333333333333333l-0.0026666666666666666 0.006666666666666666 -0.011333333333333334 0.2853333333333333 0.003333333333333333 0.013333333333333332 0.006666666666666666 0.008666666666666666 0.06933333333333333 0.049333333333333326 0.009999999999999998 0.0026666666666666666 0.008 -0.0026666666666666666 0.06933333333333333 -0.049333333333333326 0.008 -0.010666666666666666 0.0026666666666666666 -0.011333333333333334 -0.011333333333333334 -0.2846666666666666c-0.0013333333333333333 -0.006666666666666666 -0.005999999999999999 -0.011333333333333334 -0.011333333333333334 -0.011999999999999999Zm0.17666666666666667 -0.07533333333333334 -0.008666666666666666 0.0013333333333333333 -0.12333333333333332 0.062 -0.006666666666666666 0.006666666666666666 -0.002 0.007333333333333332 0.011999999999999999 0.2866666666666666 0.003333333333333333 0.008 0.005333333333333333 0.004666666666666666 0.134 0.062c0.008 0.0026666666666666666 0.015333333333333332 0 0.019333333333333334 -0.005333333333333333l0.0026666666666666666 -0.009333333333333332 -0.02266666666666667 -0.4093333333333333c-0.002 -0.008 -0.006666666666666666 -0.013333333333333332 -0.013333333333333332 -0.014666666666666665Zm-0.4766666666666666 0.0013333333333333333a0.015333333333333332 0.015333333333333332 0 0 0 -0.018 0.004l-0.004 0.009333333333333332 -0.02266666666666667 0.4093333333333333c0 0.008 0.004666666666666666 0.013333333333333332 0.011333333333333334 0.016l0.009999999999999998 -0.0013333333333333333 0.134 -0.062 0.006666666666666666 -0.005333333333333333 0.0026666666666666666 -0.007333333333333332 0.011333333333333334 -0.2866666666666666 -0.002 -0.008 -0.006666666666666666 -0.006666666666666666 -0.12266666666666666 -0.06133333333333333Z" stroke-width="0.6667"></path>
    <path fill="#000000" d="m11.535333333333334 6.349333333333332 2.1213333333333333 2.1213333333333333a3.6666666666666665 3.6666666666666665 0 1 1 -5.1853333333333325 5.1853333333333325l-0.7066666666666667 -0.7066666666666667a1 1 0 1 1 1.4133333333333333 -1.4146666666666665l0.708 0.7073333333333333a1.6666666666666665 1.6666666666666665 0 0 0 2.3566666666666665 -2.357333333333333l-2.1213333333333333 -2.1213333333333333a1.6666666666666665 1.6666666666666665 0 0 0 -1.7873333333333332 -0.37333333333333335c-0.108 0.042666666666666665 -0.208 0.08666666666666667 -0.30266666666666664 0.13066666666666665l-0.30933333333333335 0.14466666666666667c-0.41333333333333333 0.18666666666666668 -0.7313333333333333 0.26666666666666666 -1.136 -0.1373333333333333 -0.5813333333333333 -0.5813333333333333 -0.43066666666666664 -1.1179999999999999 0.27799999999999997 -1.6066666666666667a3.6679999999999997 3.6679999999999997 0 0 1 4.671333333333333 0.428Zm-4.006666666666666 -4.006666666666666 0.7066666666666667 0.7066666666666667a1 1 0 0 1 -1.4133333333333333 1.4146666666666665l-0.7073333333333333 -0.7066666666666667A1.6666666666666665 1.6666666666666665 0 1 0 3.7573333333333334 6.113333333333333l2.1213333333333333 2.1213333333333333a1.6666666666666665 1.6666666666666665 0 0 0 1.7873333333333332 0.37333333333333335c0.108 -0.042666666666666665 0.208 -0.08666666666666667 0.30266666666666664 -0.13066666666666665l0.30933333333333335 -0.14466666666666667c0.41333333333333333 -0.18666666666666668 0.732 -0.26666666666666666 1.136 0.1373333333333333 0.5813333333333333 0.5813333333333333 0.43066666666666664 1.1179999999999999 -0.27799999999999997 1.6066666666666667a3.6679999999999997 3.6679999999999997 0 0 1 -4.671333333333333 -0.428l-2.1213333333333333 -2.1213333333333333a3.6666666666666665 3.6666666666666665 0 1 1 5.1853333333333325 -5.1853333333333325Z" stroke-width="0.6667"></path>
  </g>
</svg>