<svg xmlns="http://www.w3.org/2000/svg" viewBox="0 0 16 16" id="Imac-Fill--Streamline-Mingcute-Fill" height="16" width="16">
  <desc>
    IMac Fill Streamline Icon: https://streamlinehq.com
  </desc>
  <g fill="none" fill-rule="evenodd">
    <path d="M16 0v16H0V0h16ZM8.395333333333333 15.505333333333333l-0.007333333333333332 0.0013333333333333333 -0.047333333333333324 0.023333333333333334 -0.013333333333333332 0.0026666666666666666 -0.009333333333333332 -0.0026666666666666666 -0.047333333333333324 -0.023333333333333334c-0.006666666666666666 -0.0026666666666666666 -0.012666666666666666 -0.0006666666666666666 -0.016 0.003333333333333333l-0.0026666666666666666 0.006666666666666666 -0.011333333333333334 0.2853333333333333 0.003333333333333333 0.013333333333333332 0.006666666666666666 0.008666666666666666 0.06933333333333333 0.049333333333333326 0.009999999999999998 0.0026666666666666666 0.008 -0.0026666666666666666 0.06933333333333333 -0.049333333333333326 0.008 -0.010666666666666666 0.0026666666666666666 -0.011333333333333334 -0.011333333333333334 -0.2846666666666666c-0.0013333333333333333 -0.006666666666666666 -0.005999999999999999 -0.011333333333333334 -0.011333333333333334 -0.011999999999999999Zm0.17666666666666667 -0.07533333333333334 -0.008666666666666666 0.0013333333333333333 -0.12333333333333332 0.062 -0.006666666666666666 0.006666666666666666 -0.002 0.007333333333333332 0.011999999999999999 0.2866666666666666 0.003333333333333333 0.008 0.005333333333333333 0.004666666666666666 0.134 0.062c0.008 0.0026666666666666666 0.015333333333333332 0 0.019333333333333334 -0.005333333333333333l0.0026666666666666666 -0.009333333333333332 -0.02266666666666667 -0.4093333333333333c-0.002 -0.008 -0.006666666666666666 -0.013333333333333332 -0.013333333333333332 -0.014666666666666665Zm-0.4766666666666666 0.0013333333333333333a0.015333333333333332 0.015333333333333332 0 0 0 -0.018 0.004l-0.004 0.009333333333333332 -0.02266666666666667 0.4093333333333333c0 0.008 0.004666666666666666 0.013333333333333332 0.011333333333333334 0.016l0.009999999999999998 -0.0013333333333333333 0.134 -0.062 0.006666666666666666 -0.005333333333333333 0.0026666666666666666 -0.007333333333333332 0.011333333333333334 -0.2866666666666666 -0.002 -0.008 -0.006666666666666666 -0.006666666666666666 -0.12266666666666666 -0.06133333333333333Z" stroke-width="0.6667"></path>
    <path fill="#000000" d="M3.333333333333333 2a1.3333333333333333 1.3333333333333333 0 0 0 -1.3333333333333333 1.3333333333333333v6.666666666666666a1.3333333333333333 1.3333333333333333 0 0 0 1.3333333333333333 1.3333333333333333h3.312c-0.076 1.0893333333333333 -0.32666666666666666 1.4153333333333333 -0.3646666666666667 1.4586666666666668 -0.29733333333333334 0.2293333333333333 -0.2826666666666666 0.5733333333333333 -0.22666666666666668 0.744 0.057999999999999996 0.17466666666666666 0.25466666666666665 0.46399999999999997 0.6406666666666666 0.46399999999999997h2.6106666666666665c0.38599999999999995 0 0.5826666666666667 -0.28933333333333333 0.6399999999999999 -0.46399999999999997 0.05666666666666667 -0.17066666666666666 0.07133333333333333 -0.5146666666666666 -0.226 -0.744 -0.03866666666666667 -0.043333333333333335 -0.2886666666666666 -0.3686666666666667 -0.3646666666666667 -1.4586666666666668H12.666666666666666a1.3333333333333333 1.3333333333333333 0 0 0 1.3333333333333333 -1.3333333333333333V3.333333333333333a1.3333333333333333 1.3333333333333333 0 0 0 -1.3333333333333333 -1.3333333333333333H3.333333333333333Zm0 8v-1.3333333333333333h9.333333333333332v1.3333333333333333H3.333333333333333Z" stroke-width="0.6667"></path>
  </g>
</svg>