<svg xmlns="http://www.w3.org/2000/svg" viewBox="0 0 16 16" id="Cursor-3-Fill--Streamline-Mingcute-Fill" height="16" width="16">
  <desc>
    Cursor 3 Fill Streamline Icon: https://streamlinehq.com
  </desc>
  <g fill="none" fill-rule="evenodd">
    <path d="m16 0 0 16 -16 0L0 0l16 0ZM8.395666666666667 15.505199999999999l-0.0077333333333333325 0.0011333333333333332 -0.047333333333333324 0.023666666666666662 -0.012666666666666666 0.0024666666666666665 -0.010133333333333333 -0.0024666666666666665 -0.047333333333333324 -0.023666666666666662c-0.0066 -0.0020666666666666663 -0.012466666666666668 -0.0003333333333333333 -0.015733333333333332 0.0036l-0.0027333333333333333 0.007266666666666666 -0.0114 0.28486666666666666 0.003333333333333333 0.013600000000000001 0.007333333333333332 0.008133333333333333 0.06906666666666667 0.049333333333333326 0.009866666666666666 0.0026 0.007866666666666666 -0.0026 0.06906666666666667 -0.049333333333333326 0.0084 -0.010666666666666666 0.0022666666666666664 -0.011066666666666666 -0.0114 -0.28486666666666666c-0.0013333333333333333 -0.0067333333333333325 -0.005733333333333333 -0.011 -0.010733333333333333 -0.011999999999999999Zm0.1766 -0.075 -0.009266666666666666 0.0013333333333333333 -0.12313333333333333 0.061599999999999995 -0.0066 0.0068000000000000005 -0.0018 0.007466666666666667 0.011933333333333332 0.28633333333333333 0.0031999999999999997 0.008533333333333334 0.005666666666666667 0.004733333333333333 0.13393333333333332 0.0618c0.008066666666666666 0.0024666666666666665 0.015266666666666666 -0.00013333333333333334 0.019 -0.005333333333333333l0.0026666666666666666 -0.009333333333333332 -0.02273333333333333 -0.4098c-0.0015999999999999999 -0.007933333333333334 -0.006866666666666667 -0.013 -0.012866666666666667 -0.014133333333333333Zm-0.4769333333333333 0.0013333333333333333c-0.006533333333333333 -0.0032666666666666664 -0.013866666666666666 -0.0013333333333333333 -0.018266666666666667 0.003533333333333333l-0.0038 0.009266666666666666 -0.02273333333333333 0.4098c-0.00046666666666666666 0.007666666666666666 0.004666666666666666 0.0138 0.011199999999999998 0.0156l0.010466666666666666 -0.0009333333333333333 0.13393333333333332 -0.0618 0.006266666666666667 -0.005399999999999999 0.0026 -0.007866666666666666 0.011933333333333332 -0.28633333333333333 -0.0021333333333333334 -0.0084 -0.006266666666666667 -0.005866666666666667 -0.12319999999999999 -0.061599999999999995Z" stroke-width="0.6667"></path>
    <path fill="#000000" d="M6.666666666666666 2c0 -0.36818666666666666 -0.29847999999999997 -0.6666666666666666 -0.6666666666666666 -0.6666666666666666s-0.6666666666666666 0.29847999999999997 -0.6666666666666666 0.6666666666666666l0 1.3333333333333333c0 0.36818666666666666 0.29847999999999997 0.6666666666666666 0.6666666666666666 0.6666666666666666s0.6666666666666666 -0.29847999999999997 0.6666666666666666 -0.6666666666666666l0 -1.3333333333333333ZM3.642993333333333 2.700146666666667c-0.2603466666666666 -0.2603533333333333 -0.68246 -0.2603533333333333 -0.9428066666666666 0 -0.2603533333333333 0.2603466666666666 -0.2603533333333333 0.68246 0 0.9428066666666666l0.9428066666666666 0.9428066666666666c0.2603533333333333 0.2603533333333333 0.68246 0.2603533333333333 0.9428133333333333 0 0.2603466666666666 -0.2603466666666666 0.2603466666666666 -0.6824533333333332 0 -0.9428066666666666L3.642993333333333 2.700146666666667Zm2.8840666666666666 2.772853333333333c-0.6514666666666666 -0.21715333333333334 -1.2712466666666666 0.4026266666666667 -1.0540933333333333 1.0540933333333333L7.828 13.592266666666667c0.23826666666666665 0.7146666666666667 1.2271333333333332 0.7715333333333333 1.5457333333333332 0.08886666666666666l1.3705333333333334 -2.936866666666667 2.9368 -1.3704666666666665c0.6826666666666666 -0.3186 0.6257999999999999 -1.3075333333333332 -0.08886666666666666 -1.5457333333333332L6.52706 5.473Zm2.7728066666666664 -2.772853333333333c0.2603333333333333 0.2603466666666666 0.2603333333333333 0.68246 0 0.9428066666666666l-0.9428666666666665 0.9428066666666666c-0.2603333333333333 0.2603533333333333 -0.6824666666666667 0.2603533333333333 -0.9427999999999999 0 -0.2603333333333333 -0.2603466666666666 -0.2603333333333333 -0.6824533333333332 0 -0.9428066666666666l0.9427999999999999 -0.9428066666666666c0.26039999999999996 -0.2603533333333333 0.6824666666666667 -0.2603533333333333 0.9428666666666665 0ZM1.3333333333333333 6c0 -0.36818666666666666 0.29847999999999997 -0.6666666666666666 0.6666666666666666 -0.6666666666666666l1.3333333333333333 0c0.36818666666666666 0 0.6666666666666666 0.2984733333333333 0.6666666666666666 0.6666666666666666 0 0.36818666666666666 -0.29847999999999997 0.6666666666666666 -0.6666666666666666 0.6666666666666666l-1.3333333333333333 0c-0.36818666666666666 0 -0.6666666666666666 -0.29847999999999997 -0.6666666666666666 -0.6666666666666666Zm3.252473333333333 2.3570666666666664c0.2603466666666666 -0.2603333333333333 0.2603466666666666 -0.6824666666666667 0 -0.9427999999999999 -0.2603533333333333 -0.2603333333333333 -0.68246 -0.2603333333333333 -0.9428133333333333 0l-0.9428066666666666 0.9427999999999999c-0.2603466666666666 0.2603333333333333 -0.2603466666666666 0.6824666666666667 0 0.9427999999999999 0.2603466666666666 0.2603333333333333 0.68246 0.2603333333333333 0.9428066666666666 0l0.9428133333333333 -0.9427999999999999Z" stroke-width="0.6667"></path>
  </g>
</svg>