<svg xmlns="http://www.w3.org/2000/svg" viewBox="0 0 16 16" id="Settings-3-Fill--Streamline-Mingcute-Fill" height="16" width="16">
  <desc>
    Settings 3 Fill Streamline Icon: https://streamlinehq.com
  </desc>
  <g fill="none" fill-rule="evenodd">
    <path d="M16 0v16H0V0h16ZM8.395333333333333 15.505333333333333l-0.007333333333333332 0.0013333333333333333 -0.047333333333333324 0.023333333333333334 -0.013333333333333332 0.0026666666666666666 -0.009333333333333332 -0.0026666666666666666 -0.047333333333333324 -0.023333333333333334c-0.006666666666666666 -0.0026666666666666666 -0.012666666666666666 -0.0006666666666666666 -0.016 0.003333333333333333l-0.0026666666666666666 0.006666666666666666 -0.011333333333333334 0.2853333333333333 0.003333333333333333 0.013333333333333332 0.006666666666666666 0.008666666666666666 0.06933333333333333 0.049333333333333326 0.009999999999999998 0.0026666666666666666 0.008 -0.0026666666666666666 0.06933333333333333 -0.049333333333333326 0.008 -0.010666666666666666 0.0026666666666666666 -0.011333333333333334 -0.011333333333333334 -0.2846666666666666c-0.0013333333333333333 -0.006666666666666666 -0.005999999999999999 -0.011333333333333334 -0.011333333333333334 -0.011999999999999999Zm0.17666666666666667 -0.07533333333333334 -0.008666666666666666 0.0013333333333333333 -0.12333333333333332 0.062 -0.006666666666666666 0.006666666666666666 -0.002 0.007333333333333332 0.011999999999999999 0.2866666666666666 0.003333333333333333 0.008 0.005333333333333333 0.004666666666666666 0.134 0.062c0.008 0.0026666666666666666 0.015333333333333332 0 0.019333333333333334 -0.005333333333333333l0.0026666666666666666 -0.009333333333333332 -0.02266666666666667 -0.4093333333333333c-0.002 -0.008 -0.006666666666666666 -0.013333333333333332 -0.013333333333333332 -0.014666666666666665Zm-0.4766666666666666 0.0013333333333333333a0.015333333333333332 0.015333333333333332 0 0 0 -0.018 0.004l-0.004 0.009333333333333332 -0.02266666666666667 0.4093333333333333c0 0.008 0.004666666666666666 0.013333333333333332 0.011333333333333334 0.016l0.009999999999999998 -0.0013333333333333333 0.134 -0.062 0.006666666666666666 -0.005333333333333333 0.0026666666666666666 -0.007333333333333332 0.011333333333333334 -0.2866666666666666 -0.002 -0.008 -0.006666666666666666 -0.006666666666666666 -0.12266666666666666 -0.06133333333333333Z" stroke-width="0.6667"></path>
    <path fill="#000000" d="M6.643333333333333 1.8726666666666667a1.0073333333333332 1.0073333333333332 0 0 0 -0.9339999999999999 -0.13533333333333333 6.66 6.66 0 0 0 -1.988 1.15c-0.27799999999999997 0.2333333333333333 -0.37999999999999995 0.574 -0.34933333333333333 0.8753333333333333 0.049999999999999996 0.502 -0.03866666666666667 0.9866666666666666 -0.27999999999999997 1.404 -0.24066666666666664 0.418 -0.6166666666666667 0.7373333333333334 -1.0766666666666667 0.9446666666666667a1.0073333333333332 1.0073333333333332 0 0 0 -0.5833333333333333 0.742 6.7059999999999995 6.7059999999999995 0 0 0 0 2.293333333333333c0.062 0.358 0.30666666666666664 0.6173333333333333 0.5833333333333333 0.7426666666666667 0.45999999999999996 0.20666666666666667 0.836 0.5266666666666666 1.0773333333333333 0.944 0.24066666666666664 0.418 0.3293333333333333 0.9019999999999999 0.2793333333333333 1.404 -0.03 0.30133333333333334 0.07133333333333333 0.6426666666666666 0.34933333333333333 0.8753333333333333a6.6593333333333335 6.6593333333333335 0 0 0 1.988 1.15 1.0066666666666666 1.0066666666666666 0 0 0 0.9333333333333332 -0.13533333333333333c0.41 -0.29466666666666663 0.8746666666666667 -0.4606666666666666 1.3573333333333333 -0.4606666666666666s0.9466666666666665 0.16599999999999998 1.3566666666666667 0.4606666666666666c0.24666666666666665 0.17733333333333334 0.5933333333333333 0.26 0.9339999999999999 0.13533333333333333a6.66 6.66 0 0 0 1.988 -1.15c0.27799999999999997 -0.23266666666666663 0.37999999999999995 -0.5733333333333333 0.34933333333333333 -0.8753333333333333 -0.049999999999999996 -0.502 0.038 -0.9866666666666666 0.27999999999999997 -1.404 0.24066666666666664 -0.418 0.6166666666666667 -0.7366666666666666 1.0766666666666667 -0.944 0.27599999999999997 -0.12466666666666666 0.5213333333333333 -0.3846666666666666 0.5833333333333333 -0.7426666666666667a6.707999999999999 6.707999999999999 0 0 0 0 -2.293333333333333 1.0073333333333332 1.0073333333333332 0 0 0 -0.5833333333333333 -0.742c-0.45999999999999996 -0.20733333333333331 -0.836 -0.5266666666666666 -1.0773333333333333 -0.9446666666666667 -0.24133333333333332 -0.41733333333333333 -0.3293333333333333 -0.9019999999999999 -0.2793333333333333 -1.404a1.0073333333333332 1.0073333333333332 0 0 0 -0.34933333333333333 -0.8753333333333333 6.66 6.66 0 0 0 -1.988 -1.15 1.0073333333333332 1.0073333333333332 0 0 0 -0.9333333333333332 0.13533333333333333C8.946666666666665 2.1666666666666665 8.482 2.333333333333333 8 2.333333333333333s-0.9466666666666665 -0.16599999999999998 -1.3566666666666667 -0.4606666666666666ZM6 8a2 2 0 1 1 4 0 2 2 0 0 1 -4 0Z" stroke-width="0.6667"></path>
  </g>
</svg>