<svg xmlns="http://www.w3.org/2000/svg" viewBox="0 0 16 16" id="Spotify-Fill--Streamline-Mingcute-Fill" height="16" width="16">
  <desc>
    Spotify Fill Streamline Icon: https://streamlinehq.com
  </desc>
  <g fill="none" fill-rule="evenodd">
    <path d="M16 0v16H0V0h16ZM8.395333333333333 15.505333333333333l-0.007333333333333332 0.0013333333333333333 -0.047333333333333324 0.023333333333333334 -0.013333333333333332 0.0026666666666666666 -0.009333333333333332 -0.0026666666666666666 -0.047333333333333324 -0.023333333333333334c-0.006666666666666666 -0.0026666666666666666 -0.012666666666666666 -0.0006666666666666666 -0.016 0.003333333333333333l-0.0026666666666666666 0.006666666666666666 -0.011333333333333334 0.2853333333333333 0.003333333333333333 0.013333333333333332 0.006666666666666666 0.008666666666666666 0.06933333333333333 0.049333333333333326 0.009999999999999998 0.0026666666666666666 0.008 -0.0026666666666666666 0.06933333333333333 -0.049333333333333326 0.008 -0.010666666666666666 0.0026666666666666666 -0.011333333333333334 -0.011333333333333334 -0.2846666666666666c-0.0013333333333333333 -0.006666666666666666 -0.005999999999999999 -0.011333333333333334 -0.011333333333333334 -0.011999999999999999Zm0.17666666666666667 -0.07533333333333334 -0.008666666666666666 0.0013333333333333333 -0.12333333333333332 0.062 -0.006666666666666666 0.006666666666666666 -0.002 0.007333333333333332 0.011999999999999999 0.2866666666666666 0.003333333333333333 0.008 0.005333333333333333 0.004666666666666666 0.134 0.062c0.008 0.0026666666666666666 0.015333333333333332 0 0.019333333333333334 -0.005333333333333333l0.0026666666666666666 -0.009333333333333332 -0.02266666666666667 -0.4093333333333333c-0.002 -0.008 -0.006666666666666666 -0.013333333333333332 -0.013333333333333332 -0.014666666666666665Zm-0.4766666666666666 0.0013333333333333333a0.015333333333333332 0.015333333333333332 0 0 0 -0.018 0.004l-0.004 0.009333333333333332 -0.02266666666666667 0.4093333333333333c0 0.008 0.004666666666666666 0.013333333333333332 0.011333333333333334 0.016l0.009999999999999998 -0.0013333333333333333 0.134 -0.062 0.006666666666666666 -0.005333333333333333 0.0026666666666666666 -0.007333333333333332 0.011333333333333334 -0.2866666666666666 -0.002 -0.008 -0.006666666666666666 -0.006666666666666666 -0.12266666666666666 -0.06133333333333333Z" stroke-width="0.6667"></path>
    <path fill="#000000" d="M8 1.3333333333333333C4.318 1.3333333333333333 1.3333333333333333 4.318 1.3333333333333333 8s2.9846666666666666 6.666666666666666 6.666666666666666 6.666666666666666 6.666666666666666 -2.9846666666666666 6.666666666666666 -6.666666666666666S11.681999999999999 1.3333333333333333 8 1.3333333333333333Zm-3.154 5.626666666666666c2.16 -0.6026666666666667 4.336666666666666 -0.29933333333333334 6.222666666666666 0.516a0.6666666666666666 0.6666666666666666 0 0 0 0.5286666666666666 -1.224c-2.1133333333333333 -0.9133333333333333 -4.603999999999999 -1.2753333333333332 -7.109999999999999 -0.576a0.6666666666666666 0.6666666666666666 0 0 0 0.3586666666666667 1.2839999999999998Zm0.3173333333333333 1.9106666666666667c1.8586666666666665 -0.518 3.9973333333333336 -0.19399999999999998 5.1866666666666665 0.536a0.6666666666666666 0.6666666666666666 0 1 0 0.6973333333333334 -1.1366666666666667c-1.5413333333333332 -0.9466666666666665 -4.069333333333333 -1.2893333333333332 -6.241999999999999 -0.6833333333333332a0.6666666666666666 0.6666666666666666 0 0 0 0.358 1.2839999999999998Zm0.28733333333333333 1.8359999999999999c0.7533333333333332 -0.17333333333333334 1.5913333333333333 -0.17533333333333334 2.328 -0.06066666666666666 0.7599999999999999 0.11733333333333332 1.3079999999999998 0.3426666666666667 1.5453333333333332 0.5373333333333333a0.6666666666666666 0.6666666666666666 0 0 0 0.844 -1.0333333333333332c-0.5086666666666666 -0.41533333333333333 -1.3333333333333333 -0.69 -2.1846666666666668 -0.8220000000000001 -0.8746666666666667 -0.13533333333333333 -1.8860000000000001 -0.13799999999999998 -2.8313333333333333 0.07999999999999999a0.6666666666666666 0.6666666666666666 0 1 0 0.29866666666666664 1.2986666666666666Z" stroke-width="0.6667"></path>
  </g>
</svg>