<svg xmlns="http://www.w3.org/2000/svg" viewBox="0 0 16 16" width="16" height="16">
  <path fill="#000" d="M7.057 1.4a1.333 1.333 0 0 1 1.8-.077l.086.078L10.21 2.667H12c.69 0 1.258.526 1.329 1.233l.004.1v1.79l1.267 1.267a1.333 1.333 0 0 1 .077 1.8l-.078.085-1.267 1.267V12c0 .69-.526 1.258-1.233 1.33l-.1.003h-1.79l-1.267 1.267a1.333 1.333 0 0 1-1.8.077l-.085-.077-1.267-1.267H4a1.333 1.333 0 0 1-1.33-1.233L2.667 12v-1.79L1.4 8.943a1.333 1.333 0 0 1-.077-1.8l.077-.085L2.667 5.79V4c0-.69.526-1.258 1.233-1.33L4 2.667h1.79L7.058 1.4Zm2.995 4.589-2.829 2.829-1.179-1.179a.667.667 0 0 0-.943.943l1.603 1.603a.733.733 0 0 0 1.037 0l3.254-3.254a.667.667 0 0 0-.943-.942Z"/>
</svg>
