<svg xmlns="http://www.w3.org/2000/svg" viewBox="0 0 16 16" id="Youtube-Fill--Streamline-Mingcute-Fill" height="16" width="16">
  <desc>
    Youtube Fill Streamline Icon: https://streamlinehq.com
  </desc>
  <g fill="none" fill-rule="evenodd">
    <path d="M16 0v16H0V0h16ZM8.395333333333333 15.505333333333333l-0.007333333333333332 0.0013333333333333333 -0.047333333333333324 0.023333333333333334 -0.013333333333333332 0.0026666666666666666 -0.009333333333333332 -0.0026666666666666666 -0.047333333333333324 -0.023333333333333334c-0.006666666666666666 -0.0026666666666666666 -0.012666666666666666 -0.0006666666666666666 -0.016 0.003333333333333333l-0.0026666666666666666 0.006666666666666666 -0.011333333333333334 0.2853333333333333 0.003333333333333333 0.013333333333333332 0.006666666666666666 0.008666666666666666 0.06933333333333333 0.049333333333333326 0.009999999999999998 0.0026666666666666666 0.008 -0.0026666666666666666 0.06933333333333333 -0.049333333333333326 0.008 -0.010666666666666666 0.0026666666666666666 -0.011333333333333334 -0.011333333333333334 -0.2846666666666666c-0.0013333333333333333 -0.006666666666666666 -0.005999999999999999 -0.011333333333333334 -0.011333333333333334 -0.011999999999999999Zm0.17666666666666667 -0.07533333333333334 -0.008666666666666666 0.0013333333333333333 -0.12333333333333332 0.062 -0.006666666666666666 0.006666666666666666 -0.002 0.007333333333333332 0.011999999999999999 0.2866666666666666 0.003333333333333333 0.008 0.005333333333333333 0.004666666666666666 0.134 0.062c0.008 0.0026666666666666666 0.015333333333333332 0 0.019333333333333334 -0.005333333333333333l0.0026666666666666666 -0.009333333333333332 -0.02266666666666667 -0.4093333333333333c-0.002 -0.008 -0.006666666666666666 -0.013333333333333332 -0.013333333333333332 -0.014666666666666665Zm-0.4766666666666666 0.0013333333333333333a0.015333333333333332 0.015333333333333332 0 0 0 -0.018 0.004l-0.004 0.009333333333333332 -0.02266666666666667 0.4093333333333333c0 0.008 0.004666666666666666 0.013333333333333332 0.011333333333333334 0.016l0.009999999999999998 -0.0013333333333333333 0.134 -0.062 0.006666666666666666 -0.005333333333333333 0.0026666666666666666 -0.007333333333333332 0.011333333333333334 -0.2866666666666666 -0.002 -0.008 -0.006666666666666666 -0.006666666666666666 -0.12266666666666666 -0.06133333333333333Z" stroke-width="0.6667"></path>
    <path fill="#000000" d="M8 2.6666666666666665c0.57 0 1.1546666666666665 0.014666666666666665 1.7213333333333332 0.03866666666666667l0.6693333333333333 0.032 0.6406666666666666 0.038 0.6 0.04066666666666666 0.5479999999999999 0.042666666666666665a2.5346666666666664 2.5346666666666664 0 0 1 2.3293333333333335 2.282l0.026666666666666665 0.2833333333333333 0.049999999999999996 0.6066666666666667c0.04666666666666667 0.6286666666666666 0.08133333333333333 1.314 0.08133333333333333 1.9693333333333334 0 0.6553333333333333 -0.034666666666666665 1.3406666666666667 -0.08133333333333333 1.9693333333333334l-0.049999999999999996 0.6066666666666667c-0.008666666666666666 0.09733333333333333 -0.017333333333333333 0.1913333333333333 -0.026666666666666665 0.2833333333333333a2.5346666666666664 2.5346666666666664 0 0 1 -2.33 2.282l-0.5466666666666666 0.041999999999999996 -0.6 0.04133333333333333 -0.6413333333333333 0.038 -0.6693333333333333 0.032c-0.5666666666666667 0.023999999999999997 -1.1513333333333333 0.03866666666666667 -1.7213333333333332 0.03866666666666667 -0.57 0 -1.1546666666666665 -0.014666666666666665 -1.7213333333333332 -0.03866666666666667l-0.6693333333333333 -0.032 -0.6406666666666666 -0.038 -0.6 -0.04133333333333333 -0.5479999999999999 -0.041999999999999996a2.5346666666666664 2.5346666666666664 0 0 1 -2.3293333333333335 -2.282l-0.026666666666666665 -0.2833333333333333 -0.049999999999999996 -0.6066666666666667A27.107999999999997 27.107999999999997 0 0 1 1.3333333333333333 8c0 -0.6553333333333333 0.034666666666666665 -1.3406666666666667 0.08133333333333333 -1.9693333333333334l0.049999999999999996 -0.6066666666666667c0.008666666666666666 -0.09733333333333333 0.017333333333333333 -0.1913333333333333 0.026666666666666665 -0.2833333333333333A2.5346666666666664 2.5346666666666664 0 0 1 3.8200000000000003 2.8586666666666667l0.5473333333333332 -0.042666666666666665 0.6 -0.04066666666666666 0.6413333333333333 -0.038 0.6693333333333333 -0.032C6.8453333333333335 2.6813333333333333 7.43 2.6666666666666665 8 2.6666666666666665Zm-1.3333333333333333 3.716666666666667v3.233333333333333c0 0.308 0.3333333333333333 0.5 0.6 0.3466666666666667l2.8 -1.6166666666666665a0.39999999999999997 0.39999999999999997 0 0 0 0 -0.6933333333333334l-2.8 -1.6159999999999999a0.39999999999999997 0.39999999999999997 0 0 0 -0.6 0.3466666666666667Z" stroke-width="0.6667"></path>
  </g>
</svg>