<svg xmlns="http://www.w3.org/2000/svg" viewBox="0 0 16 16" id="Rocket-2-Fill--Streamline-Mingcute-Fill" height="16" width="16">
  <desc>
    Rocket 2 Fill Streamline Icon: https://streamlinehq.com
  </desc>
  <g fill="none" fill-rule="evenodd">
    <path d="M16 0v16H0V0h16ZM8.395333333333333 15.505333333333333l-0.007333333333333332 0.0013333333333333333 -0.047333333333333324 0.023333333333333334 -0.013333333333333332 0.0026666666666666666 -0.009333333333333332 -0.0026666666666666666 -0.047333333333333324 -0.023333333333333334c-0.006666666666666666 -0.0026666666666666666 -0.012666666666666666 -0.0006666666666666666 -0.016 0.003333333333333333l-0.0026666666666666666 0.006666666666666666 -0.011333333333333334 0.2853333333333333 0.003333333333333333 0.013333333333333332 0.006666666666666666 0.008666666666666666 0.06933333333333333 0.049333333333333326 0.009999999999999998 0.0026666666666666666 0.008 -0.0026666666666666666 0.06933333333333333 -0.049333333333333326 0.008 -0.010666666666666666 0.0026666666666666666 -0.011333333333333334 -0.011333333333333334 -0.2846666666666666c-0.0013333333333333333 -0.006666666666666666 -0.005999999999999999 -0.011333333333333334 -0.011333333333333334 -0.011999999999999999Zm0.17666666666666667 -0.07533333333333334 -0.008666666666666666 0.0013333333333333333 -0.12333333333333332 0.062 -0.006666666666666666 0.006666666666666666 -0.002 0.007333333333333332 0.011999999999999999 0.2866666666666666 0.003333333333333333 0.008 0.005333333333333333 0.004666666666666666 0.134 0.062c0.008 0.0026666666666666666 0.015333333333333332 0 0.019333333333333334 -0.005333333333333333l0.0026666666666666666 -0.009333333333333332 -0.02266666666666667 -0.4093333333333333c-0.002 -0.008 -0.006666666666666666 -0.013333333333333332 -0.013333333333333332 -0.014666666666666665Zm-0.4766666666666666 0.0013333333333333333a0.015333333333333332 0.015333333333333332 0 0 0 -0.018 0.004l-0.004 0.009333333333333332 -0.02266666666666667 0.4093333333333333c0 0.008 0.004666666666666666 0.013333333333333332 0.011333333333333334 0.016l0.009999999999999998 -0.0013333333333333333 0.134 -0.062 0.006666666666666666 -0.005333333333333333 0.0026666666666666666 -0.007333333333333332 0.011333333333333334 -0.2866666666666666 -0.002 -0.008 -0.006666666666666666 -0.006666666666666666 -0.12266666666666666 -0.06133333333333333Z" stroke-width="0.6667"></path>
    <path fill="#000000" d="M12.915999999999999 2.1946666666666665a0.7333333333333334 0.7333333333333334 0 0 1 0.8893333333333333 0.8893333333333333l-0.7366666666666666 2.9466666666666663a3.333333333333333 3.333333333333333 0 0 1 -0.8766666666666666 1.5486666666666666l-3.0540000000000003 3.0533333333333332v1.472a1 1 0 0 1 -0.29333333333333333 0.7066666666666667l-1.1526666666666667 1.1533333333333333a0.836 0.836 0 0 1 -1.33 -0.19999999999999998 16.942666666666668 16.942666666666668 0 0 0 -0.8946666666666667 -1.5 1.3286666666666667 1.3286666666666667 0 0 1 -0.296 0.44933333333333336c-0.52 0.5206666666666666 -2.7106666666666666 1.0606666666666666 -2.828 0.9426666666666665 -0.118 -0.11733333333333332 0.422 -2.3073333333333332 0.9426666666666665 -2.828 0.132 -0.13266666666666665 0.2853333333333333 -0.2313333333333333 0.44866666666666666 -0.296a16.944666666666667 16.944666666666667 0 0 0 -1.4993333333333334 -0.8946666666666667 0.836 0.836 0 0 1 -0.19999999999999998 -1.33l1.1533333333333333 -1.1533333333333333a1 1 0 0 1 0.7066666666666667 -0.29333333333333333H5.366666666666667l3.0533333333333332 -3.0533333333333332a3.333333333333333 3.333333333333333 0 0 1 1.5493333333333332 -0.8766666666666666l2.9466666666666663 -0.7366666666666666Zm-1.3313333333333333 3.9959999999999996a4.183333333333334 4.183333333333334 0 0 0 -0.7559999999999999 -1.0186666666666666 4.184666666666667 4.184666666666667 0 0 0 -1.0193333333333332 -0.7566666666666666 2 2 0 0 0 -0.44666666666666666 0.33599999999999997l-0.6566666666666666 0.6573333333333333c0.2653333333333333 0.06666666666666667 0.7133333333333334 0.24 1.18 0.706 0.46599999999999997 0.46599999999999997 0.6386666666666666 0.9133333333333333 0.7053333333333334 1.1793333333333331l0.6573333333333333 -0.6573333333333333c0.13333333333333333 -0.13333333333333333 0.246 -0.2833333333333333 0.33599999999999997 -0.44666666666666666Z" stroke-width="0.6667"></path>
  </g>
</svg>