<svg width="71" height="87" viewBox="0 0 71 87" fill="none" xmlns="http://www.w3.org/2000/svg">
<path fill-rule="evenodd" clip-rule="evenodd" d="M26.1172 0C38.6533 0 49.1265 8.75852 51.6534 20.4413C63.1386 26.2711 71 38.1238 71 51.7971C71 71.2391 55.1061 87 35.5 87C15.8939 87 0 71.2391 0 51.7971V25.8986C0 11.5952 11.6931 0 26.1172 0ZM35.5 27.5292C32.3481 27.5292 29.7929 30.063 29.7929 33.1885C29.7929 36.3141 32.3481 38.8478 35.5 38.8478C38.6519 38.8478 41.2071 36.3141 41.2071 33.1885V28.1926C39.376 27.7589 37.4651 27.5292 35.5 27.5292ZM11.0272 51.7971C11.0272 65.1999 21.9841 76.065 35.5 76.065C49.0159 76.065 59.9728 65.1999 59.9728 51.7971C59.9728 44.8011 56.9873 38.4966 52.211 34.0678C51.75 42.8238 44.4447 49.7828 35.5 49.7828C26.2579 49.7828 18.7657 42.3533 18.7657 33.1885C18.7657 24.0238 26.2579 16.5943 35.5 16.5943C36.342 16.5943 37.1772 16.6234 38.0045 16.6805C35.2423 13.1828 30.9445 10.935 26.1172 10.935C17.7832 10.935 11.0272 17.6344 11.0272 25.8986V51.7971Z" fill="black"/>
</svg>
