<svg width="397" height="125" viewBox="0 0 397 125" fill="none" xmlns="http://www.w3.org/2000/svg">
<path fill-rule="evenodd" clip-rule="evenodd" d="M26.1172 19C38.6533 19 49.1265 27.7585 51.6534 39.4413C63.1386 45.2711 71 57.1238 71 70.7971C71 90.2391 55.1061 106 35.5 106C15.8939 106 0 90.2391 0 70.7971V44.8986C0 30.5952 11.6931 19 26.1172 19ZM35.5 46.5292C32.3481 46.5292 29.7929 49.063 29.7929 52.1885C29.7929 55.3141 32.3481 57.8478 35.5 57.8478C38.6519 57.8478 41.2071 55.3141 41.2071 52.1885V47.1926C39.376 46.7589 37.4651 46.5292 35.5 46.5292ZM11.0272 70.7971C11.0272 84.1999 21.9841 95.065 35.5 95.065C49.0159 95.065 59.9728 84.1999 59.9728 70.7971C59.9728 63.8011 56.9873 57.4966 52.211 53.0678C51.75 61.8238 44.4447 68.7828 35.5 68.7828C26.2579 68.7828 18.7657 61.3533 18.7657 52.1885C18.7657 43.0238 26.2579 35.5943 35.5 35.5943C36.342 35.5943 37.1772 35.6234 38.0045 35.6805C35.2423 32.1828 30.9445 29.935 26.1172 29.935C17.7832 29.935 11.0272 36.6344 11.0272 44.8986V70.7971Z" fill="black"/>
<path d="M147.248 95V27.8H158.768V95H147.248ZM104.816 95V27.8H116.336V95H104.816ZM114.608 65.432V56.024H149.456V65.432H114.608ZM189.882 96.152C185.082 96.152 180.858 95.128 177.21 93.08C173.562 90.968 170.714 88.024 168.666 84.248C166.618 80.472 165.594 76.12 165.594 71.192C165.594 66.072 166.586 61.592 168.57 57.752C170.618 53.912 173.466 50.904 177.114 48.728C180.826 46.552 185.114 45.464 189.978 45.464C194.714 45.464 198.842 46.52 202.362 48.632C205.882 50.744 208.602 53.592 210.522 57.176C212.442 60.696 213.402 64.664 213.402 69.08C213.402 69.72 213.402 70.424 213.402 71.192C213.402 71.96 213.338 72.76 213.21 73.592H173.85V66.2H201.786C201.658 62.68 200.474 59.928 198.234 57.944C195.994 55.896 193.21 54.872 189.882 54.872C187.514 54.872 185.338 55.416 183.354 56.504C181.37 57.592 179.802 59.224 178.65 61.4C177.498 63.512 176.922 66.2 176.922 69.464V72.248C176.922 75.256 177.466 77.848 178.554 80.024C179.706 82.2 181.242 83.864 183.162 85.016C185.146 86.104 187.354 86.648 189.786 86.648C192.474 86.648 194.682 86.072 196.41 84.92C198.202 83.768 199.514 82.232 200.346 80.312H212.058C211.162 83.32 209.69 86.04 207.642 88.472C205.594 90.84 203.066 92.728 200.058 94.136C197.05 95.48 193.658 96.152 189.882 96.152ZM222.938 116.12L234.746 89.624H231.866L212.57 46.616H225.146L239.546 79.448L253.178 46.616H265.37L235.13 116.12H222.938ZM269.291 95V27.8H295.595C300.331 27.8 304.267 28.536 307.403 30.008C310.603 31.48 313.003 33.528 314.603 36.152C316.203 38.712 317.003 41.688 317.003 45.08C317.003 48.472 316.267 51.32 314.795 53.624C313.323 55.928 311.371 57.688 308.939 58.904C306.571 60.12 303.979 60.856 301.163 61.112L302.603 60.056C305.611 60.12 308.299 60.92 310.667 62.456C313.099 63.992 315.019 66.008 316.427 68.504C317.835 70.936 318.539 73.656 318.539 76.664C318.539 80.184 317.675 83.352 315.947 86.168C314.283 88.92 311.819 91.096 308.555 92.696C305.291 94.232 301.291 95 296.555 95H269.291ZM280.811 85.592H294.827C298.603 85.592 301.547 84.696 303.659 82.904C305.771 81.112 306.827 78.616 306.827 75.416C306.827 72.216 305.739 69.688 303.563 67.832C301.387 65.912 298.411 64.952 294.635 64.952H280.811V85.592ZM280.811 56.216H293.963C297.675 56.216 300.491 55.384 302.411 53.72C304.331 51.992 305.291 49.624 305.291 46.616C305.291 43.672 304.331 41.368 302.411 39.704C300.491 37.976 297.643 37.112 293.867 37.112H280.811V56.216ZM324.868 95V46.616H336.388V95H324.868ZM330.628 38.936C328.516 38.936 326.756 38.296 325.348 37.016C324.004 35.672 323.332 34.04 323.332 32.12C323.332 30.136 324.004 28.536 325.348 27.32C326.756 26.04 328.516 25.4 330.628 25.4C332.74 25.4 334.468 26.04 335.812 27.32C337.22 28.536 337.924 30.136 337.924 32.12C337.924 34.04 337.22 35.672 335.812 37.016C334.468 38.296 332.74 38.936 330.628 38.936ZM367.461 96.152C362.853 96.152 358.693 95.096 354.981 92.984C351.333 90.808 348.453 87.832 346.341 84.056C344.293 80.216 343.269 75.832 343.269 70.904C343.269 65.848 344.325 61.432 346.437 57.656C348.549 53.816 351.429 50.84 355.077 48.728C358.789 46.552 362.949 45.464 367.557 45.464C372.165 45.464 376.293 46.552 379.941 48.728C383.653 50.84 386.533 53.784 388.581 57.56C390.693 61.336 391.749 65.752 391.749 70.808C391.749 75.864 390.693 80.28 388.581 84.056C386.469 87.832 383.557 90.808 379.845 92.984C376.197 95.096 372.069 96.152 367.461 96.152ZM367.461 86.264C369.765 86.264 371.845 85.688 373.701 84.536C375.621 83.384 377.157 81.656 378.309 79.352C379.461 77.048 380.037 74.2 380.037 70.808C380.037 67.416 379.461 64.6 378.309 62.36C377.221 60.056 375.717 58.328 373.797 57.176C371.941 56.024 369.861 55.448 367.557 55.448C365.317 55.448 363.237 56.024 361.317 57.176C359.397 58.328 357.861 60.056 356.709 62.36C355.557 64.6 354.981 67.416 354.981 70.808C354.981 74.2 355.557 77.048 356.709 79.352C357.861 81.656 359.365 83.384 361.221 84.536C363.141 85.688 365.221 86.264 367.461 86.264Z" fill="black"/>
</svg>
