<svg width="287" height="91" viewBox="0 0 287 91" fill="none" xmlns="http://www.w3.org/2000/svg">
<path d="M42.432 69.6001V2.40009H53.952V69.6001H42.432ZM2.12193e-05 69.6001V2.40009H11.52V69.6001H2.12193e-05ZM9.79202 40.0321V30.6241H44.64V40.0321H9.79202ZM85.0658 70.7521C80.2658 70.7521 76.0418 69.7281 72.3938 67.6801C68.7458 65.5681 65.8978 62.6241 63.8498 58.8481C61.8018 55.0721 60.7778 50.7201 60.7778 45.7921C60.7778 40.6721 61.7698 36.1921 63.7538 32.3521C65.8018 28.5121 68.6498 25.5041 72.2978 23.3281C76.0098 21.1521 80.2978 20.0641 85.1618 20.0641C89.8978 20.0641 94.0258 21.1201 97.5458 23.2321C101.066 25.3441 103.786 28.1921 105.706 31.7761C107.626 35.2961 108.586 39.2641 108.586 43.6801C108.586 44.3201 108.586 45.0241 108.586 45.7921C108.586 46.5601 108.522 47.3601 108.394 48.1921H69.0338V40.8001H96.9698C96.8418 37.2801 95.6578 34.5281 93.4178 32.5441C91.1778 30.4961 88.3938 29.4721 85.0658 29.4721C82.6978 29.4721 80.5218 30.0161 78.5378 31.1041C76.5538 32.1921 74.9858 33.8241 73.8338 36.0001C72.6818 38.1121 72.1058 40.8001 72.1058 44.0641V46.8481C72.1058 49.8561 72.6498 52.4481 73.7378 54.6241C74.8898 56.8001 76.4258 58.4641 78.3458 59.6161C80.3298 60.7041 82.5378 61.2481 84.9698 61.2481C87.6578 61.2481 89.8658 60.6721 91.5938 59.5201C93.3858 58.3681 94.6978 56.8321 95.5298 54.9121H107.242C106.346 57.9201 104.874 60.6401 102.826 63.0721C100.778 65.4401 98.2498 67.3281 95.2418 68.7361C92.2338 70.0801 88.8418 70.7521 85.0658 70.7521ZM118.122 90.7201L129.93 64.2241H127.05L107.754 21.2161H120.33L134.73 54.0481L148.362 21.2161H160.554L130.314 90.7201H118.122ZM164.475 69.6001V2.40009H190.779C195.515 2.40009 199.451 3.13609 202.587 4.60809C205.787 6.08009 208.187 8.12809 209.787 10.7521C211.387 13.3121 212.187 16.2881 212.187 19.6801C212.187 23.0721 211.451 25.9201 209.979 28.2241C208.507 30.5281 206.555 32.2881 204.123 33.5041C201.755 34.7201 199.163 35.4561 196.347 35.7121L197.787 34.6561C200.795 34.7201 203.483 35.5201 205.851 37.0561C208.283 38.5921 210.203 40.6081 211.611 43.1041C213.019 45.5361 213.723 48.2561 213.723 51.2641C213.723 54.7841 212.859 57.9521 211.131 60.7681C209.467 63.5201 207.003 65.6961 203.739 67.2961C200.475 68.8321 196.475 69.6001 191.739 69.6001H164.475ZM175.995 60.1921H190.011C193.787 60.1921 196.731 59.2961 198.843 57.5041C200.955 55.7121 202.011 53.2161 202.011 50.0161C202.011 46.8161 200.923 44.2881 198.747 42.4321C196.571 40.5121 193.595 39.5521 189.819 39.5521H175.995V60.1921ZM175.995 30.8161H189.147C192.859 30.8161 195.675 29.9841 197.595 28.3201C199.515 26.5921 200.475 24.2241 200.475 21.2161C200.475 18.2721 199.515 15.9681 197.595 14.3041C195.675 12.5761 192.827 11.7121 189.051 11.7121H175.995V30.8161ZM220.052 69.6001V21.2161H231.572V69.6001H220.052ZM225.812 13.5361C223.7 13.5361 221.94 12.8961 220.532 11.6161C219.188 10.2721 218.516 8.6401 218.516 6.72009C218.516 4.73609 219.188 3.13609 220.532 1.92009C221.94 0.640095 223.7 9.53674e-05 225.812 9.53674e-05C227.924 9.53674e-05 229.652 0.640095 230.996 1.92009C232.404 3.13609 233.108 4.73609 233.108 6.72009C233.108 8.6401 232.404 10.2721 230.996 11.6161C229.652 12.8961 227.924 13.5361 225.812 13.5361ZM262.645 70.7521C258.037 70.7521 253.877 69.6961 250.165 67.5841C246.517 65.4081 243.637 62.4321 241.525 58.6561C239.477 54.8161 238.453 50.4321 238.453 45.5041C238.453 40.4481 239.509 36.0321 241.621 32.2561C243.733 28.4161 246.613 25.4401 250.261 23.3281C253.973 21.1521 258.133 20.0641 262.741 20.0641C267.349 20.0641 271.477 21.1521 275.125 23.3281C278.837 25.4401 281.717 28.3841 283.765 32.1601C285.877 35.9361 286.933 40.3521 286.933 45.4081C286.933 50.4641 285.877 54.8801 283.765 58.6561C281.653 62.4321 278.741 65.4081 275.029 67.5841C271.381 69.6961 267.253 70.7521 262.645 70.7521ZM262.645 60.8641C264.949 60.8641 267.029 60.2881 268.885 59.1361C270.805 57.9841 272.341 56.2561 273.493 53.9521C274.645 51.6481 275.221 48.8001 275.221 45.4081C275.221 42.0161 274.645 39.2001 273.493 36.9601C272.405 34.6561 270.901 32.9281 268.981 31.7761C267.125 30.6241 265.045 30.0481 262.741 30.0481C260.501 30.0481 258.421 30.6241 256.501 31.7761C254.581 32.9281 253.045 34.6561 251.893 36.9601C250.741 39.2001 250.165 42.0161 250.165 45.4081C250.165 48.8001 250.741 51.6481 251.893 53.9521C253.045 56.2561 254.549 57.9841 256.405 59.1361C258.325 60.2881 260.405 60.8641 262.645 60.8641Z" fill="black"/>
</svg>
